<svg viewBox="0 0 1024 1024" version="1.1" xmlns="http://www.w3.org/2000/svg" p-id="5762" width="16" height="16"><path d="M814.976 222.304c-10.432-5.504-23.168-4.832-32.96 1.824L576 364.288 576 250.592c0-11.872-6.56-22.72-17.024-28.288-10.432-5.504-23.168-4.832-32.96 1.824l-384 261.248C133.248 491.328 128 501.248 128 511.84s5.248 20.512 14.016 26.464l384 261.376c5.408 3.68 11.68 5.568 17.984 5.568 5.12 0 10.272-1.216 14.976-3.712C569.44 796 576 785.088 576 773.248l0-113.792 206.016 140.224c5.408 3.68 11.68 5.568 17.984 5.568 5.12 0 10.272-1.216 14.976-3.712C825.44 796 832 785.088 832 773.248L832 250.592C832 238.72 825.44 227.872 814.976 222.304z" p-id="5763"></path></svg>